Coordinates
version=1
nRows=10
nColumns=34
inDegrees=yes

Units are S.I. units (second, meters, Newtons, ...)
If the header above contains a line with 'inDegrees', this indicates whether rotational values are in degrees (yes) or radians (no).

endheader
time	pelvis_tilt	pelvis_list	pelvis_rotation	pelvis_tx	pelvis_ty	pelvis_tz	hip_flexion_r	hip_adduction_r	hip_rotation_r	knee_angle_r	ankle_angle_r	subtalar_angle_r	mtp_angle_r	hip_flexion_l	hip_adduction_l	hip_rotation_l	knee_angle_l	ankle_angle_l	subtalar_angle_l	mtp_angle_l	lumbar_extension	lumbar_bending	lumbar_rotation	arm_flex_r	arm_add_r	arm_rot_r	elbow_flex_r	pro_sup_r	arm_flex_l	arm_add_l	arm_rot_l	elbow_flex_l	pro_sup_l
      5.90000000	     11.32054103	     -2.14687413	     -4.95279347	      0.18227602	      0.77291792	      0.08829304	     18.24281656	      7.69928559	     -4.10988253	     68.38393769	     27.02108834	     -5.70666712	      0.00000000	     28.96819015	     -7.17404984	     -4.50235733	      0.00000000	    -14.74525020	     -0.59362163	      0.00000000	    -29.10284879	      7.37533903	      4.25454982	     41.15555012	     10.45399621	     44.94124576	    124.58276537	    100.94998328	     58.21327390	     16.84183770	     71.59267082	    129.78734147	     70.88524133
      5.91666670	     11.72930324	     -2.52296043	     -5.42869576	      0.18070404	      0.76998493	      0.08735309	     18.24477432	      7.76182415	     -4.20386079	     69.38420197	     27.88480354	     -5.12164450	      0.00000000	     28.73200292	     -7.65930030	     -4.77231676	      0.00000000	    -14.54111448	     -0.43938929	      0.00000000	    -29.87042216	      8.01852492	      4.78715873	     41.42540192	     10.51820393	     46.89976711	    125.27214526	    100.89140161	     58.03246744	     16.60574900	     71.11148209	    129.30245626	     70.77009973
      5.93333330	     12.09451356	     -3.04712661	     -5.71066786	      0.18116296	      0.76229555	      0.08632872	     18.70356639	      8.00691436	     -4.56249749	     71.33193174	     27.25794314	     -5.00095135	      0.00000000	     28.62897734	     -8.12649354	     -4.48850962	      0.00000000	    -14.01663063	      0.26455952	      0.00000000	    -30.49873647	      8.87295622	      5.21551093	     41.40351974	     10.59953114	     48.32898627	    126.03127992	    100.80172784	     57.93759933	     16.71641074	     71.01590139	    129.38658434	     70.70515934
      5.95000000	     12.21833518	     -3.08557635	     -5.90022382	      0.17997504	      0.75943739	      0.08527278	     19.11047409	      7.95695746	     -4.50642263	     72.38000919	     27.07587041	     -5.13956518	      0.00000000	     28.67789996	     -8.11006572	     -4.80895270	      0.00000000	    -14.53447369	      0.51391366	      0.00000000	    -31.07324443	      9.23241950	      5.59413710	     41.17359402	     10.72248591	     50.41823197	    127.12116075	    100.78193818	     57.68780483	     16.78833612	     71.31059848	    129.57518123	     70.67386774
      5.96666670	     12.64301175	     -3.15578044	     -6.21162000	      0.17805158	      0.75812162	      0.08451481	     19.16367236	      8.01425165	     -4.20906137	     72.93482295	     26.41048355	     -5.07974020	      0.00000000	     27.96513206	     -8.29432218	     -5.94832401	      0.00000000	    -15.96415862	     -0.20963200	      0.00000000	    -31.51625692	      9.33172175	      5.60553780	     40.85714970	     10.83543033	     51.48564958	    127.48979495	    100.77517220	     57.62092587	     16.51821335	     70.96866147	    129.12618303	     70.59935262
      5.98333330	     12.73570330	     -2.77869763	     -6.01625227	      0.17758894	      0.75458973	      0.08344893	     19.72860551	      7.60671729	     -4.22444300	     74.23642306	     24.75478636	     -5.27282586	      0.00000000	     28.03536484	     -7.64933815	     -6.89580718	      0.00000000	    -17.88489531	     -1.30828450	      0.00000000	    -32.09116106	      9.27281694	      5.45107101	     40.91967560	     10.64329784	     52.19981134	    127.83956007	    100.75677681	     57.94783988	     16.72695554	     70.88293001	    129.07240099	     70.53125380
      6.00000000	     12.66750414	     -2.53596094	     -6.29875533	      0.17664777	      0.75005966	      0.08253455	     20.10080350	      7.60036327	     -3.82024293	     75.09730533	     24.58813921	     -5.88015608	      0.00000000	     28.28466489	     -7.32883581	     -6.30625739	      0.00000000	    -18.90181195	     -1.83812715	      0.00000000	    -32.26363005	      9.13334575	      5.34489370	     41.03258701	     10.58617983	     52.91956100	    128.28251484	    100.72034579	     58.03551022	     16.67229441	     70.80035883	    128.76987960	     70.42285459
      6.01666670	     12.46135399	     -2.62846097	     -6.63807629	      0.17507405	      0.74863208	      0.08200003	     21.00000660	      7.96385126	     -3.40624564	     75.86284922	     24.51263675	     -6.51095641	      0.00000000	     28.46715076	     -7.39692318	     -4.97742806	      0.00026647	    -18.57351046	     -1.75132699	      0.00000000	    -32.44659668	      9.41240036	      5.41423147	     41.04655485	     10.68760635	     53.74162442	    128.75708174	    100.70443403	     58.03530370	     16.64826257	     70.69243129	    128.72292179	     70.33370447
      6.03333330	     12.35050842	     -2.54099452	     -6.78965729	      0.17555872	      0.74714094	      0.08118148	     21.54008132	      8.20953102	     -2.81498917	     76.19645269	     25.16265645	     -7.11743791	      0.00000000	     28.49315809	     -7.18113172	     -3.77230323	      0.00000000	    -18.31563043	     -1.27645746	      0.00000000	    -32.53392180	      9.53352437	      5.29371314	     41.22053930	     10.49705557	     54.08559876	    128.96666699	    100.67874653	     58.03924627	     16.71349161	     70.61720729	    128.71950969	     70.27065801
      6.05000000	     12.22494531	     -2.88526556	     -7.02122992	      0.17433809	      0.74513686	      0.08098565	     21.89423542	      9.07286611	     -2.41146692	     76.63885181	     23.38984395	     -7.94879320	      0.00000000	     28.57327926	     -7.54850045	     -1.65600022	      0.13147720	    -16.99439561	      0.45231417	      0.00000000	    -32.62040333	      9.94576715	      5.11396954	     41.53341097	     10.36771717	     54.58346733	    129.28366917	    100.54652762	     58.01176358	     16.69134319	     70.17463263	    128.59605001	     70.08513447
